<svg xmlns="http://www.w3.org/2000/svg" viewBox="0 0 512 512">
  <defs>
    <linearGradient id="bg" x1="0" y1="0" x2="1" y2="1">
      <stop offset="0" stop-color="#7c6cf0"/>
      <stop offset="1" stop-color="#f06ca8"/>
    </linearGradient>
  </defs>
  <rect width="512" height="512" rx="110" fill="url(#bg)"/>
  <!-- maison -->
  <path d="M256 96 L436 250 L400 250 L400 408 Q400 424 384 424 L128 424 Q112 424 112 408 L112 250 L76 250 Z" fill="#ffffff"/>
  <!-- porte -->
  <rect x="222" y="320" width="68" height="104" rx="12" fill="#7c6cf0"/>
  <!-- coeur -->
  <path d="M256 218 c-18-34-70-26-70 12 0 30 40 54 70 76 30-22 70-46 70-76 0-38-52-46-70-12z" fill="#f06ca8"/>
</svg>
